<svg width="64" height="64" viewBox="0 0 64 64" fill="none" xmlns="http://www.w3.org/2000/svg">
<path fill-rule="evenodd" clip-rule="evenodd" d="M29.8927 7.09017C21.5645 7.72902 14.3544 11.6176 10.518 17.5393C9.52132 19.0776 8.89203 20.5318 8.41851 22.391C8.12187 23.5558 8.11032 24.2639 8.37648 24.9751L8.57763 25.513L8.36622 26.138C8.19852 26.6336 8.1632 26.9275 8.19556 27.5567C8.26175 28.8428 8.87072 29.8961 9.9756 30.6357L10.3455 30.8833V33.5232L9.78205 33.7899C8.93691 34.1902 7.97478 35.1491 7.55187 36.0131C6.63136 37.8934 6.87996 40.1643 8.16636 41.6257L8.55889 42.0717L8.36711 42.6882C8.00477 43.8523 8.17455 45.1026 8.82297 46.0452L9.16174 46.5377V48.6159C9.16174 51.1438 9.27696 51.8261 9.92815 53.152C10.9512 55.2352 12.9607 56.6249 15.3448 56.8981C16.5314 57.034 47.9604 57.034 49.1469 56.8981C50.8389 56.7042 52.1321 56.0714 53.3603 54.8365C53.9508 54.2427 54.1979 53.8967 54.5636 53.152C55.2003 51.8555 55.33 51.1243 55.33 48.8327V46.9715L55.5901 46.7323C56.736 45.6783 57.1249 43.7646 56.4796 42.355L56.2159 41.7791L56.4689 41.4474C57.6009 39.9634 57.7973 37.7418 56.9485 36.0239C56.5158 35.1483 55.5562 34.1908 54.7097 33.7899L54.1462 33.5232L54.1467 31.1037L54.6834 30.8233C55.37 30.4645 56.155 29.6342 56.4932 28.909C56.7244 28.413 56.758 28.2169 56.7592 27.3532C56.7604 26.4313 56.7384 26.3201 56.4317 25.6968C56.1435 25.1111 56.1161 24.9905 56.2097 24.7219C56.4616 23.9991 56.2084 22.4685 55.5312 20.6206C53.7897 15.8689 49.2308 11.4992 43.64 9.22308C39.3027 7.45734 34.6059 6.72861 29.8927 7.09017ZM34.4211 9.05863C44.2376 9.81291 52.2638 15.3948 54.149 22.7787C54.3826 23.6935 54.3926 24.0638 54.1939 24.4481C53.8658 25.0825 55.5715 25.0367 32.2459 25.0367C8.92024 25.0367 10.626 25.0825 10.2979 24.4481C10.0992 24.0638 10.1092 23.6935 10.3428 22.7787C11.3359 18.8889 14.0865 15.3832 18.1575 12.8184C22.6532 9.98614 28.5999 8.61135 34.4211 9.05863ZM31.1298 10.9707C30.4439 11.6063 30.8844 12.6621 31.8242 12.6355C32.2591 12.6232 32.7391 12.1646 32.7391 11.7618C32.7391 11.4347 32.4906 10.9621 32.2513 10.834C31.9131 10.653 31.4058 10.7149 31.1298 10.9707ZM35.8466 11.4176C35.2301 11.6699 35.0516 12.4979 35.514 12.9602C35.7215 13.1677 36.0153 13.2663 37.0978 13.4917C42.8797 14.6952 47.3882 17.7025 49.4655 21.7409C50.0063 22.7924 50.1805 22.966 50.6908 22.9629C51.2113 22.9596 51.68 22.498 51.68 21.9888C51.68 21.6496 50.6254 19.7056 49.9574 18.8136C49.1018 17.6709 47.3052 15.9683 46.0439 15.1048C43.5453 13.3943 40.6937 12.2109 37.5244 11.5692C36.2132 11.3037 36.1408 11.2972 35.8466 11.4176ZM22.0557 15.8224C21.5379 16.1031 21.433 16.8605 21.8538 17.2812C22.3252 17.7528 22.9246 17.7242 23.3071 17.2119C23.6182 16.7951 23.5707 16.2902 23.1882 15.9484C22.8332 15.6311 22.4808 15.5919 22.0557 15.8224ZM29.5615 15.9508C29.3005 16.1839 29.2415 16.3102 29.2415 16.6358C29.2415 17.6143 30.5013 17.9839 30.9939 17.1499C31.2889 16.6507 31.1382 16.0564 30.6532 15.8055C30.2404 15.592 29.9144 15.6354 29.5615 15.9508ZM17.3822 19.4588C16.477 19.8525 16.8 21.288 17.7936 21.288C18.2943 21.288 18.7308 20.852 18.7308 20.3519C18.7308 19.8658 18.5814 19.6209 18.1835 19.4546C17.7823 19.287 17.7771 19.287 17.3822 19.4588ZM27.2472 19.4588C26.3421 19.8525 26.665 21.288 27.6586 21.288C28.1593 21.288 28.5958 20.852 28.5958 20.3519C28.5958 19.8658 28.4465 19.6209 28.0485 19.4546C27.6473 19.287 27.6421 19.287 27.2472 19.4588ZM34.1318 20.1664C33.8356 20.3738 33.6306 20.8682 33.697 21.2151C33.7618 21.5545 34.2514 21.9786 34.5782 21.9786C35.1232 21.9786 35.5943 21.5312 35.5978 21.0102C35.6007 20.5808 35.4613 20.3368 35.1087 20.1545C34.7361 19.9618 34.4183 19.9657 34.1318 20.1664ZM54.8299 27.3335C54.8336 27.5387 54.7681 27.871 54.6841 28.072C54.2045 29.2198 53.0023 29.5976 51.4333 29.0937C50.9206 28.9289 50.5068 28.8719 49.8259 28.8722C48.4522 28.8727 47.8123 29.0968 46.3088 30.1034C45.4759 30.661 44.8973 30.8571 44.0839 30.8571C43.2965 30.8571 42.6733 30.6553 41.9733 30.1736C40.5069 29.1647 39.69 28.8734 38.3195 28.8706C36.9527 28.8678 36.1448 29.1325 34.8601 30.0038C33.9777 30.6024 33.297 30.852 32.5418 30.8542C31.6497 30.8567 31.2355 30.719 30.2961 30.1077C28.7271 29.0867 28.075 28.866 26.6435 28.8713C25.3767 28.8761 24.6637 29.1032 23.466 29.8836C22.2566 30.6718 21.7683 30.8571 20.9011 30.8571C20.084 30.8571 19.5036 30.6593 18.6763 30.0987C17.835 29.5289 16.9809 29.1071 16.4151 28.9819C15.5451 28.7894 14.3374 28.8509 13.3544 29.1378C12.3692 29.4254 11.886 29.4149 11.2578 29.0928C10.5442 28.7269 10.1482 28.0871 10.1482 27.3C10.1482 26.8491 10.1679 26.8009 10.3209 26.8758C10.4158 26.9223 20.2155 26.9697 32.0979 26.9811C52.2538 27.0003 53.7353 26.9905 54.1955 26.8331C54.7624 26.6393 54.8177 26.6829 54.8299 27.3335ZM28.179 31.1417C28.4084 31.2587 28.9308 31.573 29.34 31.8401C30.3835 32.5213 31.0227 32.74 32.1472 32.8006C33.6089 32.8793 34.5128 32.6145 35.83 31.7219C36.8395 31.0378 37.3785 30.8413 38.2401 30.8432C39.2015 30.8451 39.6383 31.0008 40.8067 31.7577C41.9624 32.5064 42.6118 32.7408 43.7106 32.806C45.1738 32.8929 46.134 32.5988 47.5688 31.6245C48.7603 30.8152 49.8279 30.6427 51.1384 31.0476C51.502 31.1598 51.8835 31.2517 51.9863 31.2517C52.1573 31.2517 52.1732 31.3357 52.1732 32.2382V33.2247H12.3185V31.3677L12.7378 31.3013C12.9685 31.2648 13.4392 31.1499 13.784 31.046C14.5454 30.8166 15.6807 30.7991 16.2717 31.0076C16.5063 31.0904 17.1148 31.428 17.624 31.7577C18.7796 32.5064 19.4291 32.7408 20.5278 32.806C21.9864 32.8926 22.9521 32.5981 24.3718 31.6341C24.6932 31.4158 25.1203 31.1681 25.3209 31.0837C26.142 30.738 27.4393 30.7643 28.179 31.1417ZM17.7651 38.0316C20.5407 40.8012 20.6142 40.8656 21.0008 40.8656C21.3794 40.8656 21.4614 40.8007 22.9009 39.3634C23.7284 38.5372 24.449 37.8612 24.502 37.8612C24.6168 37.8612 28.1026 41.3259 28.1026 41.44C28.1026 41.4833 24.3403 41.5052 19.742 41.4888C10.3491 41.4553 10.9073 41.4998 10.0113 40.7111C8.15748 39.0795 8.93642 35.8453 11.3057 35.3364C11.6186 35.2692 12.5609 35.2105 13.3997 35.206L14.9249 35.1977L17.7651 38.0316ZM23.1171 36.384L20.9996 38.5015L17.6957 35.1977H21.9432L23.1171 36.384ZM36.6851 39.193C34.4882 41.3904 32.6898 43.1883 32.6898 43.1883C32.6898 43.1883 30.8914 41.3904 28.6945 39.193L24.7 35.1977H40.6796L36.6851 39.193ZM53.0337 35.3074C54.5878 35.578 55.6452 37.003 55.494 38.6226C55.3519 40.1434 54.3961 41.1704 52.8937 41.4164C52.3047 41.5129 37.277 41.5542 37.277 41.4594C37.277 41.4308 38.6866 40.012 40.4092 38.3064L43.5413 35.2054L47.9725 35.2015C50.7989 35.1991 52.6318 35.2374 53.0337 35.3074ZM54.7406 43.2441C55.0273 43.9981 54.6964 44.9612 53.9698 45.4875C53.4025 45.8985 52.5753 45.9629 51.6111 45.6713C49.7185 45.0989 48.1943 45.3613 46.419 46.5651C45.4448 47.2257 45.029 47.3688 44.0839 47.3688C43.1317 47.3688 42.7234 47.2263 41.7171 46.5429C40.2811 45.5679 38.952 45.2182 37.491 45.4311C36.548 45.5685 35.9251 45.8369 34.7405 46.6161C33.9751 47.1196 33.7213 47.2325 33.1312 47.332C32.0173 47.52 31.3873 47.3569 30.1491 46.5602C28.9575 45.7936 28.1467 45.4751 27.177 45.3932C25.8171 45.2782 24.604 45.6357 23.2633 46.5461C22.2619 47.2262 21.8523 47.3688 20.9011 47.3688C19.956 47.3688 19.5402 47.2257 18.5661 46.5651C16.8046 45.3707 15.2513 45.0975 13.418 45.6596C11.6633 46.1977 10.2671 45.4843 10.1749 44.0027C10.1264 43.2238 10.2085 43.1232 10.7549 43.2914C11.0975 43.3969 13.1052 43.4303 20.7038 43.4573L30.2235 43.491L31.2101 44.472C32.6434 45.8973 32.7672 45.8935 34.2661 44.3792L35.1519 43.4843L43.7366 43.4812C52.1585 43.4783 53.3025 43.4424 54.0969 43.1562C54.6393 42.9609 54.6325 42.9599 54.7406 43.2441ZM15.9844 47.4661C16.3491 47.5519 16.8352 47.7922 17.3864 48.1589C18.8883 49.1583 19.9719 49.4892 21.3355 49.3651C22.371 49.2708 23.1351 48.9765 24.2958 48.2251C25.1264 47.6874 25.4633 47.5281 25.9731 47.4319C27.094 47.2204 27.9283 47.4312 29.0883 48.219C31.3936 49.7845 33.5914 49.7845 35.8967 48.219C37.069 47.4229 37.8741 47.2172 38.9922 47.4282C39.4912 47.5223 39.8338 47.68 40.5507 48.1453C42.2473 49.2465 43.2786 49.534 44.8 49.3299C45.8011 49.1955 46.3398 48.9714 47.5118 48.2012C48.8946 47.2927 49.678 47.1562 51.0881 47.5783C51.6414 47.7439 52.1493 47.8249 52.6345 47.8249H53.357V49.2346C53.357 50.1648 53.3071 50.8361 53.2101 51.2083C52.7608 52.9333 51.4739 54.2701 49.7563 54.7958C49.1917 54.9686 48.3823 54.977 32.2459 54.977C16.1095 54.977 15.3 54.9686 14.7355 54.7958C13.0179 54.2701 11.731 52.9333 11.2816 51.2083C11.1834 50.831 11.1347 50.158 11.1347 49.1745V47.7048L11.3957 47.7703C11.9653 47.9133 13.0584 47.8322 13.8476 47.5884C14.7562 47.3078 15.203 47.2822 15.9844 47.4661Z" fill="url(#paint0_linear_8_26)"/>
<defs>
<linearGradient id="paint0_linear_8_26" x1="7" y1="7" x2="57" y2="57" gradientUnits="userSpaceOnUse">
<stop stop-color="#DA8023"/>
<stop offset="1" stop-color="#E2B438"/>
</linearGradient>
</defs>
</svg>
